<?xml version="1.0" encoding="UTF-8"?>
<svg width="40px" height="39px" viewBox="0 0 40 39" version="1.1" xmlns="http://www.w3.org/2000/svg" xmlns:xlink="http://www.w3.org/1999/xlink">
    <!-- Generator: Sketch 46.2 (44496) - http://www.bohemiancoding.com/sketch -->
    <title>Combined Shape</title>
    <desc>Created with Sketch.</desc>
    <defs>
        <path d="M8.923912,11.7650128 C8.18977879,12.6927089 7.57665015,13.7187633 7.10804623,14.8198904 L0.736182488,14.477307 L-5.51780843e-14,18.6524054 L6.06158739,20.4966516 C6.1060836,21.7360444 6.32079104,22.9325263 6.68326968,24.0638808 L1.62447056,27.8652357 L3.74422355,31.5367556 L9.59450254,29.0441096 C10.4060013,29.9223454 11.3342334,30.6930859 12.3548803,31.3322551 L10.9105334,37.5500036 L14.8943659,39 L17.7977198,33.2827313 C18.3783076,33.3580771 18.9704897,33.3969499 19.5718424,33.3969499 C20.1731951,33.3969499 20.7653773,33.3580771 21.3459651,33.2827313 L24.249319,39 L28.2331515,37.5500036 L26.7888046,31.3322551 C27.8094515,30.6930859 28.7376835,29.9223454 29.5491823,29.0441096 L35.3994613,31.5367556 L37.5192143,27.8652357 L32.4604152,24.0638808 C32.8228938,22.9325263 33.0376013,21.7360444 33.0820975,20.4966516 L39.1436849,18.6524054 L38.4075024,14.477307 L32.0356386,14.8198904 C31.5670347,13.7187633 30.9539061,12.6927089 30.2197729,11.7650128 L33.7300258,6.37567999 L30.4823758,3.65057807 L25.7298863,8.09438682 C24.714126,7.57892278 23.6238423,7.18699986 22.4792676,6.93864896 L21.6915954,0.450995673 L17.4520894,0.450995673 L16.6644172,6.93864896 C15.5198426,7.18699986 14.4295589,7.57892278 13.4137985,8.09438682 L8.66130904,3.65057807 L5.41365904,6.37567999 L8.923912,11.7650128 Z" id="path-1"></path>
    </defs>
    <g id="Page-1" stroke="none" stroke-width="1" fill="none" fill-rule="evenodd">
        <g id="Автоматика-—-комплект" transform="translate(-373.000000, -2082.000000)">
            <g id="Details" transform="translate(372.000000, 1946.000000)">
                <g id="1" transform="translate(1.000000, 136.000000)">
                    <g id="Combined-Shape">
                        <use fill="#FFFFFF" fill-rule="evenodd" xlink:href="#path-1"></use>
                        <path stroke="#0071BA" stroke-width="1" d="M1.15166609,15.0003677 L0.569324149,18.3029929 L6.54846447,20.1221545 L6.56126547,20.4787124 C6.6035189,21.6556351 6.80574361,22.8074188 7.15942734,23.9113229 L7.26793005,24.2499775 L2.27896636,27.9988557 L3.95575316,30.9031356 L9.722635,28.4460229 L9.9617334,28.7047846 C10.745121,29.5525973 11.6395815,30.2943545 12.6202573,30.9084922 L12.9226424,31.0978576 L11.4977955,37.2316606 L14.6491239,38.3786503 L17.5118242,32.7414363 L17.8620677,32.7868892 C18.4256391,32.8600268 18.9963528,32.8969499 19.5718424,32.8969499 C20.147332,32.8969499 20.7180458,32.8600268 21.2816172,32.7868892 L21.6318606,32.7414363 L24.494561,38.3786503 L27.6458893,37.2316606 L26.2210425,31.0978576 L26.5234276,30.9084922 C27.5041033,30.2943545 28.3985638,29.5525973 29.1819515,28.7047846 L29.4210499,28.4460229 L35.1879317,30.9031356 L36.8647185,27.9988557 L31.8757548,24.2499775 L31.9842575,23.9113229 C32.3379412,22.8074188 32.540166,21.6556351 32.5824194,20.4787124 L32.5952204,20.1221545 L38.5743607,18.3029929 L37.9920188,15.0003677 L31.7127243,15.337974 L31.5755672,15.0156818 C31.1275157,13.9628489 30.5391318,12.9743104 29.8276897,12.0752882 L29.604595,11.7933719 L33.0693002,6.47396903 L30.5003138,4.31833348 L25.8157308,8.6986464 L25.5036203,8.5402609 C24.5152094,8.03867578 23.4644556,7.6640508 22.3732443,7.42727873 L22.0257671,7.35188279 L21.2486292,0.950995673 L17.8950556,0.950995673 L17.1179178,7.35188279 L16.7704406,7.42727873 C15.6792293,7.6640508 14.6284754,8.03867578 13.6400645,8.5402609 L13.3279541,8.6986464 L8.64337105,4.31833348 L6.07438463,6.47396903 L9.53908988,11.7933719 L9.31599513,12.0752882 C8.60455303,12.9743104 8.01616918,13.9628489 7.56811764,15.0156818 L7.43096055,15.337974 L1.15166609,15.0003677 Z M6.10255674,23.8748178 L6.38290289,23.6641561 L6.20711203,24.2164386 C6.17077522,24.1030255 6.13592056,23.9891449 6.10255599,23.8748184 Z"></path>
                    </g>
                </g>
            </g>
        </g>
    </g>
</svg>