<?xml version="1.0" encoding="UTF-8"?>
<svg width="64px" height="16px" viewBox="0 0 64 16" version="1.1" xmlns="http://www.w3.org/2000/svg" xmlns:xlink="http://www.w3.org/1999/xlink">
    <!-- Generator: Sketch 46.2 (44496) - http://www.bohemiancoding.com/sketch -->
    <title>Combined Shape</title>
    <desc>Created with Sketch.</desc>
    <defs>
        <path d="M60.8303972,4 L66,4 L66,16 L2,16 L2,4 L7.20337747,4 L8.01688735,0 L11.0168874,0 L11.8303972,4 L14.2033775,4 L15.0168874,0 L18.0168874,0 L18.8303972,4 L21.2033775,4 L22.0168874,0 L25.0168874,0 L25.8303972,4 L28.2033775,4 L29.0168874,0 L32.0168874,0 L32.8303972,4 L35.2033775,4 L36.0168874,0 L39.0168874,0 L39.8303972,4 L42.2033775,4 L43.0168874,0 L46.0168874,0 L46.8303972,4 L49.2033775,4 L50.0168874,0 L53.0168874,0 L53.8303972,4 L56.2033775,4 L57.0168874,0 L60.0168874,0 L60.8303972,4 Z" id="path-1"></path>
    </defs>
    <g id="Page-1" stroke="none" stroke-width="1" fill="none" fill-rule="evenodd">
        <g id="Автоматика-—-комплект" transform="translate(-1179.000000, -2102.000000)">
            <g id="Details" transform="translate(372.000000, 1946.000000)">
                <g id="3" transform="translate(805.000000, 156.000000)">
                    <g id="Combined-Shape">
                        <use fill="#FFFFFF" fill-rule="evenodd" xlink:href="#path-1"></use>
                        <path stroke="#0071BA" stroke-width="1" d="M59.6083403,0.5 L57.4254344,0.5 L56.6119246,4.5 L53.4218501,4.5 L52.6083403,0.5 L50.4254344,0.5 L49.6119246,4.5 L46.4218501,4.5 L45.6083403,0.5 L43.4254344,0.5 L42.6119246,4.5 L39.4218501,4.5 L38.6083403,0.5 L36.4254344,0.5 L35.6119246,4.5 L32.4218501,4.5 L31.6083403,0.5 L29.4254344,0.5 L28.6119246,4.5 L25.4218501,4.5 L24.6083403,0.5 L22.4254344,0.5 L21.6119246,4.5 L18.4218501,4.5 L17.6083403,0.5 L15.4254344,0.5 L14.6119246,4.5 L11.4218501,4.5 L10.6083403,0.5 L8.42543444,0.5 L7.61192456,4.5 L2.5,4.5 L2.5,15.5 L65.5,15.5 L65.5,4.5 L60.4218501,4.5 L59.6083403,0.5 Z"></path>
                    </g>
                </g>
            </g>
        </g>
    </g>
</svg>