
<svg width="154px" height="82px" viewBox="0 0 154 82" version="1.1" xmlns="http://www.w3.org/2000/svg" xmlns:xlink="http://www.w3.org/1999/xlink">
    <!-- Generator: Sketch 46.2 (44496) - http://www.bohemiancoding.com/sketch -->
    <desc>Created with Sketch.</desc>
    <defs>
        <rect id="path-1" x="30" y="61" width="123" height="9"></rect>
        <rect id="path-2" x="0" y="0" width="31" height="31"></rect>
        <path d="M9.23658146,9.16666667 L4.05220767,4.88888889 L3.78580977,4.88888889 L3.78580977,4.66907622 L3.04878049,4.0609319 L3.78580977,4.0609319 L3.78580977,1.22222222 L21.8430271,1.22222222 L21.8430271,4.0609319 L22.7253371,4.0609319 L21.8430271,4.78895162 L21.8430271,4.88888889 L21.7219099,4.88888889 L16.5375361,9.16666667 L19.5121951,9.16666667 L19.5121951,12.1666667 L6.09756098,12.1666667 L6.09756098,9.16666667 L9.23658146,9.16666667 Z" id="path-4"></path>
        <rect id="path-5" x="30" y="15" width="1" height="12"></rect>
        <rect id="path-6" x="0" y="0" width="31" height="31"></rect>
        <path d="M9.23658146,9.16666667 L4.05220767,4.88888889 L3.78580977,4.88888889 L3.78580977,4.66907622 L3.04878049,4.0609319 L3.78580977,4.0609319 L3.78580977,1.22222222 L21.8430271,1.22222222 L21.8430271,4.0609319 L22.7253371,4.0609319 L21.8430271,4.78895162 L21.8430271,4.88888889 L21.7219099,4.88888889 L16.5375361,9.16666667 L19.5121951,9.16666667 L19.5121951,12.1666667 L6.09756098,12.1666667 L6.09756098,9.16666667 L9.23658146,9.16666667 Z" id="path-8"></path>
        <rect id="path-9" x="30" y="15" width="1" height="12"></rect>
    </defs>
    <g id="Symbols" stroke="none" stroke-width="1" fill="none" fill-rule="evenodd">
        <g id="Icons" transform="translate(-1155.000000, -525.000000)">
            <g id="Доставка" transform="translate(1156.000000, 526.000000)">
                <g id="Icon-6">
                    <g id="Rectangle-14">
                        <use fill="#FFFFFF" fill-rule="evenodd" xlink:href="#path-1"></use>
                        <rect stroke="#0071BA" stroke-width="1" x="30.5" y="61.5" width="122" height="8"></rect>
                    </g>
                    <rect id="Rectangle-37" stroke="#0071BA" fill="#FFFFFF" transform="translate(67.000000, 29.577465) rotate(-270.000000) translate(-67.000000, -29.577465) " x="37.4225352" y="-11.4225352" width="59.1549296" height="82"></rect>
                    <polygon id="Rectangle-37" stroke="#0071BA" fill="#FFFFFF" transform="translate(130.500000, 32.500000) rotate(-270.000000) translate(-130.500000, -32.500000) " points="134 13 157 13 157 52 104 52 104 31.6871883"></polygon>
                    <polygon id="Rectangle-37" stroke="#0071BA" stroke-width="0.860000014" fill="#FFFFFF" transform="translate(130.000000, 22.000000) rotate(-270.000000) translate(-130.000000, -22.000000) " points="143 6 143 38 117 38 117 22.2913949"></polygon>
                    <g id="Group-17" transform="translate(62.000000, 25.000000)">
                        <g id="Group-11">
                            <mask id="mask-3" fill="white">
                                <use xlink:href="#path-2"></use>
                            </mask>
                            <g id="Mask">
                                <use fill="#FFFFFF" fill-rule="evenodd" xlink:href="#path-2"></use>
                                <rect stroke="#0071BA" stroke-width="1" x="0.5" y="0.5" width="30" height="30"></rect>
                            </g>
                            <g mask="url(#mask-3)">
                                <g transform="translate(15.000000, 15.000000)">
                                    <g id="Combined-Shape" stroke="none" fill="none">
                                        <use fill="#FFFFFF" fill-rule="evenodd" xlink:href="#path-4"></use>
                                        <path stroke="#0071BA" stroke-width="1" d="M3.78580977,4.5609319 L3.78580977,4.88888889 L4.28580977,4.88888889 L4.28580977,4.43340508 L3.36700159,3.67526971 L3.04878049,4.5609319 L3.78580977,4.5609319 Z M4.28580977,1.72222222 L4.28580977,1.22222222 L3.78580977,1.72222222 L4.28580977,1.72222222 Z M21.3430271,1.72222222 L21.8430271,1.72222222 L21.3430271,1.22222222 L21.3430271,1.72222222 Z M21.8430271,4.5609319 L22.7253371,4.5609319 L22.407116,3.67526971 L21.3430271,4.55328048 L21.3430271,4.88888889 L21.8430271,4.88888889 L21.8430271,4.5609319 Z M19.0121951,9.66666667 L19.5121951,9.66666667 L19.0121951,9.16666667 L19.0121951,9.66666667 Z M19.0121951,11.6666667 L19.0121951,12.1666667 L19.5121951,11.6666667 L19.0121951,11.6666667 Z M6.59756098,11.6666667 L6.09756098,11.6666667 L6.59756098,12.1666667 L6.59756098,11.6666667 Z M6.59756098,9.66666667 L6.59756098,9.16666667 L6.09756098,9.66666667 L6.59756098,9.66666667 Z M4.28580977,4.43340508 L4.28580977,1.72222222 L21.3430271,1.72222222 L21.3430271,4.55328048 L15.1459531,9.66666667 L19.0121951,9.66666667 L19.0121951,11.6666667 L6.59756098,11.6666667 L6.59756098,9.66666667 L10.6281645,9.66666667 L4.28580977,4.43340508 Z"></path>
                                    </g>
                                    <ellipse id="Oval-5" stroke="#0071BA" stroke-width="1" fill="#FFFFFF" fill-rule="evenodd" cx="2.43902439" cy="2.44444444" rx="2.43902439" ry="2.44444444"></ellipse>
                                    <ellipse id="Oval-5" stroke="#0071BA" stroke-width="1" fill="#FFFFFF" fill-rule="evenodd" cx="9.14634146" cy="2.44444444" rx="2.43902439" ry="2.44444444"></ellipse>
                                    <ellipse id="Oval-5" stroke="#0071BA" stroke-width="1" fill="#FFFFFF" fill-rule="evenodd" cx="15.8536585" cy="2.44444444" rx="2.43902439" ry="2.44444444"></ellipse>
                                    <ellipse id="Oval-5" stroke="#0071BA" stroke-width="1" fill="#FFFFFF" fill-rule="evenodd" cx="22.5609756" cy="2.44444444" rx="2.43902439" ry="2.44444444"></ellipse>
                                </g>
                            </g>
                            <g id="Rectangle-12" mask="url(#mask-3)">
                                <use fill="#D8D8D8" fill-rule="evenodd" xlink:href="#path-5"></use>
                                <rect stroke="#0071BA" stroke-width="1" x="30.5" y="15.5" width="1" height="11"></rect>
                            </g>
                        </g>
                        <path d="M4.5,4.5 L12.5,4.5" id="Line" stroke="#0071BA" stroke-linecap="square"></path>
                        <path d="M4.5,6.5 L12.5,6.5" id="Line" stroke="#0071BA" stroke-linecap="square"></path>
                    </g>
                    <g id="Group-17" transform="translate(29.000000, 25.000000)">
                        <g id="Group-11">
                            <mask id="mask-7" fill="white">
                                <use xlink:href="#path-6"></use>
                            </mask>
                            <g id="Mask">
                                <use fill="#FFFFFF" fill-rule="evenodd" xlink:href="#path-6"></use>
                                <rect stroke="#0071BA" stroke-width="1" x="0.5" y="0.5" width="30" height="30"></rect>
                            </g>
                            <g mask="url(#mask-7)">
                                <g transform="translate(15.000000, 15.000000)">
                                    <g id="Combined-Shape" stroke="none" fill="none">
                                        <use fill="#FFFFFF" fill-rule="evenodd" xlink:href="#path-8"></use>
                                        <path stroke="#0071BA" stroke-width="1" d="M3.78580977,4.5609319 L3.78580977,4.88888889 L4.28580977,4.88888889 L4.28580977,4.43340508 L3.36700159,3.67526971 L3.04878049,4.5609319 L3.78580977,4.5609319 Z M4.28580977,1.72222222 L4.28580977,1.22222222 L3.78580977,1.72222222 L4.28580977,1.72222222 Z M21.3430271,1.72222222 L21.8430271,1.72222222 L21.3430271,1.22222222 L21.3430271,1.72222222 Z M21.8430271,4.5609319 L22.7253371,4.5609319 L22.407116,3.67526971 L21.3430271,4.55328048 L21.3430271,4.88888889 L21.8430271,4.88888889 L21.8430271,4.5609319 Z M19.0121951,9.66666667 L19.5121951,9.66666667 L19.0121951,9.16666667 L19.0121951,9.66666667 Z M19.0121951,11.6666667 L19.0121951,12.1666667 L19.5121951,11.6666667 L19.0121951,11.6666667 Z M6.59756098,11.6666667 L6.09756098,11.6666667 L6.59756098,12.1666667 L6.59756098,11.6666667 Z M6.59756098,9.66666667 L6.59756098,9.16666667 L6.09756098,9.66666667 L6.59756098,9.66666667 Z M4.28580977,4.43340508 L4.28580977,1.72222222 L21.3430271,1.72222222 L21.3430271,4.55328048 L15.1459531,9.66666667 L19.0121951,9.66666667 L19.0121951,11.6666667 L6.59756098,11.6666667 L6.59756098,9.66666667 L10.6281645,9.66666667 L4.28580977,4.43340508 Z"></path>
                                    </g>
                                    <ellipse id="Oval-5" stroke="#0071BA" stroke-width="1" fill="#FFFFFF" fill-rule="evenodd" cx="2.43902439" cy="2.44444444" rx="2.43902439" ry="2.44444444"></ellipse>
                                    <ellipse id="Oval-5" stroke="#0071BA" stroke-width="1" fill="#FFFFFF" fill-rule="evenodd" cx="9.14634146" cy="2.44444444" rx="2.43902439" ry="2.44444444"></ellipse>
                                    <ellipse id="Oval-5" stroke="#0071BA" stroke-width="1" fill="#FFFFFF" fill-rule="evenodd" cx="15.8536585" cy="2.44444444" rx="2.43902439" ry="2.44444444"></ellipse>
                                    <ellipse id="Oval-5" stroke="#0071BA" stroke-width="1" fill="#FFFFFF" fill-rule="evenodd" cx="22.5609756" cy="2.44444444" rx="2.43902439" ry="2.44444444"></ellipse>
                                </g>
                            </g>
                            <g id="Rectangle-12" mask="url(#mask-7)">
                                <use fill="#D8D8D8" fill-rule="evenodd" xlink:href="#path-9"></use>
                                <rect stroke="#0071BA" stroke-width="1" x="30.5" y="15.5" width="1" height="11"></rect>
                            </g>
                        </g>
                        <path d="M4.5,4.5 L12.5,4.5" id="Line" stroke="#0071BA" stroke-linecap="square"></path>
                        <path d="M4.5,6.5 L12.5,6.5" id="Line" stroke="#0071BA" stroke-linecap="square"></path>
                        <path d="M85.5,14.5 L93.5,14.5" id="Line" stroke="#0071BA" stroke-linecap="square"></path>
                    </g>
                    <circle id="Oval-5" stroke="#0071BA" fill="#FFFFFF" cx="49" cy="72" r="8"></circle>
                    <circle id="Oval-5" stroke="#0071BA" fill="#FFFFFF" cx="49" cy="72" r="5"></circle>
                    <circle id="Oval-5" stroke="#0071BA" fill="#FFFFFF" cx="130.75" cy="71.75" r="7.75"></circle>
                    <circle id="Oval-5" stroke="#0071BA" fill="#FFFFFF" cx="131" cy="72" r="5"></circle>
                    <rect id="Rectangle-39" stroke="#0071BA" fill="#FFFFFF" x="146" y="48" width="4" height="7"></rect>
                    <path d="M5,59 L20,59" id="Line" stroke="#0071BA" stroke-linecap="square"></path>
                    <path d="M0,69 L20,69" id="Line" stroke="#0071BA" stroke-linecap="square"></path>
                    <path d="M10,49 L20,49" id="Line" stroke="#0071BA" stroke-linecap="square"></path>
                </g>
            </g>
        </g>
    </g>
</svg>