
<svg width="102px" height="112px" viewBox="0 0 102 112" version="1.1" xmlns="http://www.w3.org/2000/svg" xmlns:xlink="http://www.w3.org/1999/xlink">
    <!-- Generator: Sketch 46.2 (44496) - http://www.bohemiancoding.com/sketch -->
    <desc>Created with Sketch.</desc>
    <defs></defs>
    <g id="Symbols" stroke="none" stroke-width="1" fill="none" fill-rule="evenodd">
        <g id="Icons" transform="translate(-368.000000, -498.000000)" stroke="#0071BA">
            <g id="Опыт" transform="translate(369.000000, 499.000000)">
                <g id="Icon-4">
                    <circle id="Oval-7" fill="#FFFFFF" cx="50" cy="60" r="50"></circle>
                    <path d="M11.1196469,91.5023081 C4.16563156,82.9133484 0,71.9742055 0,60.0621273 C0,47.9497741 4.30688057,36.8433469 11.4727535,28.1907337 C20.6446042,32.2131782 34.3689141,34.7682239 49.7060966,34.7682239 C65.2843188,34.7682239 79.198574,32.1322368 88.3684903,28 C95.6294609,36.6798432 100,47.8605882 100,60.0621273 C100,72.0645797 95.7709213,83.079278 88.7215966,91.6973891 C79.5579049,87.4727774 65.4856255,84.7682239 49.7060966,84.7682239 C34.1708188,84.7682239 20.2903465,87.3896979 11.1196469,91.5023081 Z" id="Combined-Shape" fill="#FFFFFF"></path>
                    <path d="M49.7060966,110 C65.5600361,110 78.4121933,87.6142375 78.4121933,60 C78.4121933,32.3857625 65.5600361,10 49.7060966,10 C33.8521572,10 21,32.3857625 21,60 C21,87.6142375 33.8521572,110 49.7060966,110 Z" id="Oval-7"></path>
                    <path d="M0,60 L98.9951479,60.98015" id="Line" stroke-linecap="square"></path>
                    <path d="M49,109.995148 L49.98015,11" id="Line" stroke-linecap="square"></path>
                    <path d="M19.0702576,38 L19,38 L26,49 L33,38 L32.9297424,38 C33.6104229,36.8233065 34,35.4571486 34,34 C34,29.581722 30.418278,26 26,26 C21.581722,26 18,29.581722 18,34 C18,35.4571486 18.3895771,36.8233065 19.0702576,38 Z" id="Combined-Shape" fill="#FFFFFF" stroke-linecap="round" stroke-linejoin="round"></path>
                    <path d="M68.0702576,12 L68,12 L75,23 L82,12 L81.9297424,12 C82.6104229,10.8233065 83,9.45714857 83,8 C83,3.581722 79.418278,0 75,0 C70.581722,0 67,3.581722 67,8 C67,9.45714857 67.3895771,10.8233065 68.0702576,12 Z" id="Combined-Shape" fill="#FFFFFF" stroke-linecap="round" stroke-linejoin="round"></path>
                    <path d="M70.0702576,63 L70,63 L77,74 L84,63 L83.9297424,63 C84.6104229,61.8233065 85,60.4571486 85,59 C85,54.581722 81.418278,51 77,51 C72.581722,51 69,54.581722 69,59 C69,60.4571486 69.3895771,61.8233065 70.0702576,63 Z" id="Combined-Shape" fill="#FFFFFF" stroke-linecap="round" stroke-linejoin="round"></path>
                    <circle id="Oval-5" fill="#FFFFFF" cx="26" cy="34" r="4"></circle>
                    <circle id="Oval-5" fill="#FFFFFF" cx="75" cy="8" r="4"></circle>
                    <circle id="Oval-5" fill="#FFFFFF" cx="77" cy="59" r="4"></circle>
                </g>
            </g>
        </g>
    </g>
</svg>