<?xml version="1.0" encoding="UTF-8"?>
<svg width="35px" height="30px" viewBox="0 0 35 30" version="1.1" xmlns="http://www.w3.org/2000/svg" xmlns:xlink="http://www.w3.org/1999/xlink">
    <!-- Generator: Sketch 46.2 (44496) - http://www.bohemiancoding.com/sketch -->
    <title>Group</title>
    <desc>Created with Sketch.</desc>
    <defs>
        <rect id="path-1" x="1" y="0.5" width="29" height="29"></rect>
        <rect id="path-2" x="10" y="12" width="25" height="11"></rect>
        <rect id="path-3" x="0" y="0" width="31" height="7"></rect>
    </defs>
    <g id="Page-1" stroke="none" stroke-width="1" fill="none" fill-rule="evenodd">
        <g id="Bag-4" transform="translate(-396.000000, -567.000000)">
            <g id="2" transform="translate(375.000000, 448.000000)">
                <g id="Group" transform="translate(21.000000, 119.000000)">
                    <g id="Rectangle-6">
                        <use fill="#FFFFFF" fill-rule="evenodd" xlink:href="#path-1"></use>
                        <rect stroke="#0071BA" stroke-width="1" x="1.5" y="1" width="28" height="28"></rect>
                    </g>
                    <g id="Rectangle-8">
                        <use fill="#FFFFFF" fill-rule="evenodd" xlink:href="#path-2"></use>
                        <rect stroke="#0071BA" stroke-width="1" x="10.5" y="12.5" width="24" height="10"></rect>
                    </g>
                    <rect id="Rectangle-9" stroke="#0071BA" x="12.5" y="14.5" width="2" height="1"></rect>
                    <rect id="Rectangle-9" stroke="#0071BA" x="12.5" y="20.5" width="2" height="1"></rect>
                    <rect id="Rectangle-9" stroke="#0071BA" x="30.5" y="14.5" width="2" height="1"></rect>
                    <rect id="Rectangle-9" stroke="#0071BA" x="30.5" y="20.5" width="2" height="1"></rect>
                    <path d="M22.5,21 C24.4329966,21 26,19.4329966 26,17.5 C26,15.5670034 24.4329966,14 22.5,14 C20.5670034,14 19,17.5 19,17.5 C19,17.5 20.5670034,21 22.5,21 Z" id="Oval-3" stroke="#0071BA" fill="#FFFFFF"></path>
                    <g id="Rectangle-7">
                        <use fill="#FFFFFF" fill-rule="evenodd" xlink:href="#path-3"></use>
                        <rect stroke="#0071BA" stroke-width="1" x="0.5" y="0.5" width="30" height="6"></rect>
                    </g>
                </g>
            </g>
        </g>
    </g>
</svg>