<?xml version="1.0" encoding="UTF-8"?>
<svg width="40px" height="25px" viewBox="0 0 40 25" version="1.1" xmlns="http://www.w3.org/2000/svg" xmlns:xlink="http://www.w3.org/1999/xlink">
    <!-- Generator: Sketch 46.2 (44496) - http://www.bohemiancoding.com/sketch -->
    <title>Group</title>
    <desc>Created with Sketch.</desc>
    <defs>
        <rect id="path-1" x="0" y="0" width="40" height="25"></rect>
    </defs>
    <g id="Page-1" stroke="none" stroke-width="1" fill="none" fill-rule="evenodd">
        <g id="Bag-4" transform="translate(-389.000000, -1043.000000)">
            <g id="2" transform="translate(375.000000, 448.000000)">
                <g id="Group" transform="translate(14.000000, 595.000000)">
                    <g id="Rectangle">
                        <use fill="#FFFFFF" fill-rule="evenodd" xlink:href="#path-1"></use>
                        <rect stroke="#0071BA" stroke-width="1" x="0.5" y="0.5" width="39" height="24"></rect>
                    </g>
                    <rect id="Rectangle-4" stroke="#0071BA" x="0.5" y="5.5" width="39" height="4"></rect>
                    <path d="M30,15.0505086 C29.3647415,14.4022336 28.4793441,14 27.5,14 C25.5670034,14 24,15.5670034 24,17.5 C24,19.4329966 25.5670034,21 27.5,21 C28.4793441,21 29.3647415,20.5977664 30,19.9494914 C30.6352585,20.5977664 31.5206559,21 32.5,21 C34.4329966,21 36,19.4329966 36,17.5 C36,15.5670034 34.4329966,14 32.5,14 C31.5206559,14 30.6352585,14.4022336 30,15.0505086 Z" id="Combined-Shape" stroke="#0071BA" fill="#F7F7F7"></path>
                </g>
            </g>
        </g>
    </g>
</svg>