<?xml version="1.0" encoding="UTF-8"?>
<svg width="33px" height="38px" viewBox="0 0 33 38" version="1.1" xmlns="http://www.w3.org/2000/svg" xmlns:xlink="http://www.w3.org/1999/xlink">
    <!-- Generator: Sketch 46.2 (44496) - http://www.bohemiancoding.com/sketch -->
    <title>Group 2</title>
    <desc>Created with Sketch.</desc>
    <defs>
        <rect id="path-1" x="1" y="14" width="32" height="24"></rect>
        <polygon id="path-2" points="0.922341925 13.9333333 29.2987318 10.1333333 29.2987318 34.2 0.922341925 38"></polygon>
        <ellipse id="path-3" cx="14.4936588" cy="22.8" rx="8.63629256" ry="8.86666667"></ellipse>
        <polygon id="path-4" points="1 13.9333333 26 0 26 24.0666667 1 38"></polygon>
        <polygon id="path-5" points="16.961171 12.6666665 25.961171 7.6 25.961171 13.9333331 16.961171 18.9999996"></polygon>
    </defs>
    <g id="Page-1" stroke="none" stroke-width="1" fill="none" fill-rule="evenodd">
        <g id="Bag-4" transform="translate(-392.000000, -909.000000)">
            <g id="2" transform="translate(375.000000, 448.000000)">
                <g id="Group-2" transform="translate(17.000000, 461.000000)">
                    <g id="Rectangle-5">
                        <use fill="#F7F7F7" fill-rule="evenodd" xlink:href="#path-1"></use>
                        <rect stroke="#0071BA" stroke-width="1" x="1.5" y="14.5" width="31" height="23"></rect>
                    </g>
                    <g id="Rectangle-5">
                        <use fill="#F7F7F7" fill-rule="evenodd" xlink:href="#path-2"></use>
                        <path stroke="#0071BA" stroke-width="1" d="M1.42234192,14.3708396 L1.42234192,37.4285796 L28.7987318,33.7624937 L28.7987318,10.7047537 L1.42234192,14.3708396 Z"></path>
                    </g>
                    <g id="Oval">
                        <use fill="#FFFFFF" fill-rule="evenodd" xlink:href="#path-3"></use>
                        <ellipse stroke="#0071BA" stroke-width="1" cx="14.4936588" cy="22.8" rx="8.13629256" ry="8.36666667"></ellipse>
                    </g>
                    <g id="Rectangle-5">
                        <use fill="#F7F7F7" fill-rule="evenodd" xlink:href="#path-4"></use>
                        <path stroke="#0071BA" stroke-width="1" d="M1.5,14.2270783 L1.5,37.1489217 L25.5,23.7729217 L25.5,0.851078329 L1.5,14.2270783 Z"></path>
                    </g>
                    <g id="Rectangle-26">
                        <use fill="#F7F7F7" fill-rule="evenodd" xlink:href="#path-5"></use>
                        <path stroke="#0071BA" stroke-width="1" d="M17.461171,12.9589723 L17.461171,18.1447309 L25.461171,13.6410273 L25.461171,8.45526873 L17.461171,12.9589723 Z"></path>
                    </g>
                </g>
            </g>
        </g>
    </g>
</svg>