
<svg width="101px" height="126px" viewBox="0 0 101 126" version="1.1" xmlns="http://www.w3.org/2000/svg" xmlns:xlink="http://www.w3.org/1999/xlink">
    <!-- Generator: Sketch 46.2 (44496) - http://www.bohemiancoding.com/sketch -->
    <desc>Created with Sketch.</desc>
    <defs>
        <rect id="path-1" x="19" y="89" width="37" height="4"></rect>
        <path d="M3,96 L86.0092314,96 C94.2884043,96 101,102.713907 101,111 L101,111 C101,119.284271 94.2833602,126 86.0092314,126 L3,126 L3,96 Z" id="path-2"></path>
        <path d="M13,73 L11,73 C11,73 20.9411467,77.9814352 26.4581966,83.5434694 C31.9752465,89.1055036 30.8382452,90 30.8382452,90 L44.5559882,90 C44.5559882,90 44.2575615,88.2600916 48.9591348,83.5201831 C53.6607081,78.7802747 64.3942334,73 64.3942334,73 L62,73 L62,65 L13,65 L13,73 Z" id="path-3"></path>
        <path d="M82,100 L86,100 L86,103 L82,103 L82,100 Z M91.3344772,102.578574 L93.8517588,105.687158 L91.5203209,107.575119 L89.0030394,104.466536 L91.3344772,102.578574 Z M95.1732724,111.502635 L94.2734682,115.400116 L91.350358,114.725262 L92.2501622,110.827782 L95.1732724,111.502635 Z M90.5770403,120.030653 L86.9818641,121.784138 L85.6667507,119.087755 L89.2619269,117.334271 L90.5770403,120.030653 Z M81.0181359,121.784138 L77.4229597,120.030653 L78.7380731,117.334271 L82.3332493,119.087755 L81.0181359,121.784138 Z M73.7265318,115.400116 L72.8267276,111.502635 L75.7498378,110.827782 L76.649642,114.725262 L73.7265318,115.400116 Z M74.1482412,105.687158 L76.6655228,102.578574 L78.9969606,104.466536 L76.4796791,107.575119 L74.1482412,105.687158 Z" id="path-4"></path>
    </defs>
    <g id="Symbols" stroke="none" stroke-width="1" fill="none" fill-rule="evenodd">
        <g id="Icons" transform="translate(-373.000000, -99.000000)">
            <g id="Производство" transform="translate(373.000000, 99.000000)">
                <g id="Icon-1">
                    <g id="Rectangle-5">
                        <use fill="#FFFFFF" fill-rule="evenodd" xlink:href="#path-1"></use>
                        <rect stroke="#0071BA" stroke-width="1" x="19.5" y="89.5" width="36" height="3"></rect>
                    </g>
                    <g id="Rectangle-8">
                        <use fill="#FFFFFF" fill-rule="evenodd" xlink:href="#path-2"></use>
                        <path stroke="#0071BA" stroke-width="1" d="M3.5,96.5 L3.5,125.5 L86.0092314,125.5 C94.008917,125.5 100.5,119.006429 100.5,111 C100.5,102.990619 94.0128311,96.5 86.0092314,96.5 L3.5,96.5 Z"></path>
                    </g>
                    <g id="Combined-Shape">
                        <use fill="#FFFFFF" fill-rule="evenodd" xlink:href="#path-3"></use>
                        <path stroke="#0071BA" stroke-width="1" d="M13.0142332,73.5 C13.398926,73.7101657 13.802394,73.9343758 14.2218127,74.1717693 C16.4660106,75.4419983 18.7104309,76.8289071 20.8072593,78.2879479 C23.1845944,79.9421741 25.220875,81.5860636 26.8131826,83.1913544 C29.9710421,86.3749621 31.3149187,88.3450685 31.4318529,89.5 L44.1004157,89.5 C44.1768754,89.1403632 44.3476792,88.6841341 44.645294,88.1237543 C45.3417679,86.8123615 46.6153889,85.1730437 48.6041488,83.1680682 C49.3089564,82.4575137 50.1658173,81.7038333 51.1606113,80.9116712 C52.3693011,79.9491822 53.7669661,78.9413382 55.3170236,77.9024525 C57.2514132,76.6059781 59.3222839,75.3271232 61.392954,74.1211135 C61.7668905,73.9033236 62.1270699,73.6959668 62.471136,73.5 L61.5,73.5 L61.5,65.5 L13.5,65.5 L13.5,73.5 L13.0142332,73.5 Z"></path>
                    </g>
                    <circle id="Oval-5" stroke="#0071BA" fill="#FFFFFF" cx="10" cy="69" r="7"></circle>
                    <circle id="Oval-5" stroke="#0071BA" fill="#FFFFFF" cx="10" cy="69" r="5"></circle>
                    <circle id="Oval-5" stroke="#0071BA" fill="#FFFFFF" cx="28" cy="69" r="7"></circle>
                    <circle id="Oval-5" stroke="#0071BA" fill="#FFFFFF" cx="46" cy="69" r="7"></circle>
                    <circle id="Oval-5" stroke="#0071BA" fill="#FFFFFF" cx="64" cy="69" r="7"></circle>
                    <circle id="Oval-5" stroke="#0071BA" fill="#FFFFFF" cx="84" cy="111" r="7"></circle>
                    <g id="Rectangle-32">
                        <use fill="#FFFFFF" fill-rule="evenodd" xlink:href="#path-4"></use>
                        <path stroke="#0071BA" stroke-width="1" d="M82.5,100.5 L82.5,102.5 L85.5,102.5 L85.5,100.5 L82.5,100.5 Z M91.2605645,103.281808 L89.7062725,104.540448 L91.5942337,106.871886 L93.1485256,105.613245 L91.2605645,103.281808 Z M94.5736118,111.877345 L92.6248717,111.427443 L91.9500185,114.350553 L93.8987586,114.800455 L94.5736118,111.877345 Z M89.9084577,119.800442 L89.0317154,118.002853 L86.3353333,119.317967 L87.2120756,121.115555 L89.9084577,119.800442 Z M80.7879244,121.115555 L81.6646667,119.317967 L78.9682846,118.002853 L78.0915423,119.800442 L80.7879244,121.115555 Z M74.1012414,114.800455 L76.0499815,114.350553 L75.3751283,111.427443 L73.4263882,111.877345 L74.1012414,114.800455 Z M74.8514744,105.613245 L76.4057663,106.871886 L78.2937275,104.540448 L76.7394355,103.281808 L74.8514744,105.613245 Z"></path>
                    </g>
                    <circle id="Oval-5" stroke="#0071BA" fill="#FFFFFF" cx="28" cy="69" r="5"></circle>
                    <circle id="Oval-5" stroke="#0071BA" fill="#FFFFFF" cx="46" cy="69" r="5"></circle>
                    <circle id="Oval-5" stroke="#0071BA" fill="#FFFFFF" cx="64" cy="69" r="5"></circle>
                    <rect id="Rectangle-33" fill="#FFFFFF" x="0" y="97" width="7" height="28"></rect>
                    <rect id="Rectangle-34" stroke="#0071BA" fill="#FFFFFF" x="32" y="2" width="11" height="27"></rect>
                    <path d="M23.0416965,36.272012 L23,36.3137085 L23.0416965,36.355405 L23.0416965,52.2294104 L27.0416965,52.2294104 L27.0416965,37.9288663 L37.1421356,27.8284271 L34.3137085,25 L23.0842981,36.2294104 L23.0416965,36.2294104 L23.0416965,36.272012 Z" id="Combined-Shape" stroke="#0071BA" fill="#FFFFFF" fill-rule="nonzero" stroke-linecap="round" stroke-linejoin="round"></path>
                    <path d="M38.0416965,36.272012 L38,36.3137085 L38.0416965,36.355405 L38.0416965,52.2294104 L42.0416965,52.2294104 L42.0416965,37.9288663 L52.1421356,27.8284271 L49.3137085,25 L38.0842981,36.2294104 L38.0416965,36.2294104 L38.0416965,36.272012 Z" id="Combined-Shape" stroke="#0071BA" fill="#FFFFFF" fill-rule="nonzero" stroke-linecap="round" stroke-linejoin="round" transform="translate(45.071068, 38.614705) scale(-1, 1) translate(-45.071068, -38.614705) "></path>
                    <circle id="Oval-6" stroke="#0071BA" fill="#FFFFFF" cx="37.5" cy="26.5" r="6.5"></circle>
                    <rect id="Rectangle-36" fill="#FFFFFF" x="32.5" y="0" width="10" height="5"></rect>
                </g>
            </g>
        </g>
    </g>
</svg>