
<svg width="88px" height="92px" viewBox="0 0 88 92" version="1.1" xmlns="http://www.w3.org/2000/svg" xmlns:xlink="http://www.w3.org/1999/xlink">
    <!-- Generator: Sketch 46.2 (44496) - http://www.bohemiancoding.com/sketch -->
    <desc>Created with Sketch.</desc>
    <defs>
        <rect id="path-1" x="24" y="27" width="37" height="4"></rect>
        <path d="M18,11 L16,11 C16,11 25.9411467,15.9814352 31.4581966,21.5434694 C36.9752465,27.1055036 35.8382452,28 35.8382452,28 L49.5559882,28 C49.5559882,28 49.2575615,26.2600916 53.9591348,21.5201831 C58.6607081,16.7802747 69.3942334,11 69.3942334,11 L67,11 L67,3 L18,3 L18,11 Z" id="path-2"></path>
        <path d="M-1.13686838e-13,12.8723404 L-1.13686838e-13,25.2765957 L20.1392405,59.9148936 L20.1392405,66 L37,66 L37,59.212766 L37,57.3035839 C37,51.7727789 34.844415,43.3770009 32.1853661,38.5348002 C32.1853661,38.5348002 30.7184247,34.7785948 27.6425437,32.3742764 C24.8994851,30.2301146 12.2598692,26.4052878 9.55667276,25.6026692 L9.36708861,25.2765957 L9.36708861,12.8723404 L9.36708861,4.68398078 C9.36708861,2.10391885 7.2701944,0 4.6835443,0 C2.10215752,0 -1.13686838e-13,2.09708963 -1.13686838e-13,4.68398078 L-1.13686838e-13,12.8723404 Z" id="path-3"></path>
        <path d="M20,24.5727273 L20,42 L11,42 L11,24.5727273 L11,20.5058597 C11,18.0173421 13.0197757,16 15.5,16 C17.9852814,16 20,18.0175695 20,20.5058597 L20,24.5727273 Z" id="path-4"></path>
        <path d="M0,14.5425532 L0,25.2765957 L20.1392405,59.9148936 L20.1392405,66 L37,66 L37,59.212766 L37,57.3035839 C37,51.7727789 34.844415,43.3770009 32.1853661,38.5348002 C32.1853661,38.5348002 30.7184247,34.7785948 27.6425437,32.3742764 C24.8994851,30.2301146 12.2598692,26.4052878 9.55667276,25.6026692 L9.36708861,25.2765957 L9.36708861,14.5425532 L9.36708861,4.68211597 C9.36708861,2.10206906 7.2701944,0 4.6835443,0 C2.10215752,0 0,2.09625472 0,4.68211597 L0,14.5425532 Z" id="path-5"></path>
        <path d="M19.7364481,29.2754334 L19.7364481,42.1477738 L10.3693595,42.1477738 L10.3693595,29.2754334 L10.3693595,21.0870737 C10.3693595,18.5001826 12.471517,16.403093 15.0529038,16.403093 C17.6395539,16.403093 19.7364481,18.5070118 19.7364481,21.0870737 L19.7364481,29.2754334 Z" id="path-6"></path>
    </defs>
    <g id="Symbols" stroke="none" stroke-width="1" fill="none" fill-rule="evenodd">
        <g id="Icons" transform="translate(-777.000000, -132.000000)">
            <g id="14-лет" transform="translate(777.000000, 133.000000)">
                <g id="Icon-2">
                    <g id="Rectangle-5">
                        <use fill="#FFFFFF" fill-rule="evenodd" xlink:href="#path-1"></use>
                        <rect stroke="#0071BA" stroke-width="1" x="24.5" y="27.5" width="36" height="3"></rect>
                    </g>
                    <g id="Combined-Shape">
                        <use fill="#FFFFFF" fill-rule="evenodd" xlink:href="#path-2"></use>
                        <path stroke="#0071BA" stroke-width="1" d="M18.0142332,11.5 C18.398926,11.7101657 18.802394,11.9343758 19.2218127,12.1717693 C21.4660106,13.4419983 23.7104309,14.8289071 25.8072593,16.2879479 C28.1845944,17.9421741 30.220875,19.5860636 31.8131826,21.1913544 C34.9710421,24.3749621 36.3149187,26.3450685 36.4318529,27.5 L49.1004157,27.5 C49.1768754,27.1403632 49.3476792,26.6841341 49.645294,26.1237543 C50.3417679,24.8123615 51.6153889,23.1730437 53.6041488,21.1680682 C54.3089564,20.4575137 55.1658173,19.7038333 56.1606113,18.9116712 C57.3693011,17.9491822 58.7669661,16.9413382 60.3170236,15.9024525 C62.2514132,14.6059781 64.3222839,13.3271232 66.392954,12.1211135 C66.7668905,11.9033236 67.1270699,11.6959668 67.471136,11.5 L66.5,11.5 L66.5,3.5 L18.5,3.5 L18.5,11.5 L18.0142332,11.5 Z"></path>
                    </g>
                    <circle id="Oval-5" stroke="#0071BA" fill="#FFFFFF" cx="15" cy="7" r="7"></circle>
                    <circle id="Oval-5" stroke="#0071BA" fill="#FFFFFF" cx="15" cy="7" r="5"></circle>
                    <circle id="Oval-5" stroke="#0071BA" fill="#FFFFFF" cx="33" cy="7" r="7"></circle>
                    <circle id="Oval-5" stroke="#0071BA" fill="#FFFFFF" cx="51" cy="7" r="7"></circle>
                    <circle id="Oval-5" stroke="#0071BA" fill="#FFFFFF" cx="69" cy="7" r="7"></circle>
                    <circle id="Oval-5" stroke="#0071BA" fill="#FFFFFF" cx="33" cy="7" r="5"></circle>
                    <circle id="Oval-5" stroke="#0071BA" fill="#FFFFFF" cx="51" cy="7" r="5"></circle>
                    <circle id="Oval-5" stroke="#0071BA" fill="#FFFFFF" cx="69" cy="7" r="5"></circle>
                    <rect id="Rectangle-7" fill="#FFFFFF" x="21" y="84" width="15" height="4"></rect>
                    <rect id="Rectangle-7" fill="#FFFFFF" x="52" y="84" width="15" height="4"></rect>
                    <rect id="Rectangle-20" stroke="#0071BA" x="20.5" y="86.5" width="16" height="4"></rect>
                    <rect id="Rectangle-20" stroke="#0071BA" x="51.5" y="86.5" width="16" height="4"></rect>
                    <g id="Group-35" transform="translate(0.000000, 21.000000)">
                        <g id="Combined-Shape">
                            <use fill="#FFFFFF" fill-rule="evenodd" xlink:href="#path-3"></use>
                            <path stroke="#0071BA" stroke-width="1" d="M0.5,25.1418053 L20.6392405,59.7801032 L20.6392405,65.5 L36.5,65.5 L36.5,57.3035839 C36.5,51.8594514 34.3668682,43.5461413 31.7196237,38.7166904 C31.6978334,38.6608947 31.6512939,38.5496698 31.5798456,38.3910018 C31.4590727,38.1227968 31.3130314,37.8229649 31.1416036,37.4995062 C30.6511981,36.5741846 30.0574704,35.6487122 29.3604969,34.7870543 C28.7387154,34.018355 28.0631883,33.3377078 27.3346193,32.7682086 C26.1785131,31.8645171 22.9728342,30.5276625 18.4216448,28.9580738 C15.3616491,27.9027596 12.1520537,26.89485 9.41435616,26.0819875 L9.22415135,26.0255129 L8.86708861,25.4113862 L8.86708861,4.68398078 C8.86708861,2.37757958 6.99157282,0.5 4.6835443,0.5 C2.37640571,0.5 0.5,2.37512501 0.5,4.68398078 L0.5,25.1418053 Z"></path>
                        </g>
                        <g id="Combined-Shape" transform="translate(15.500000, 29.000000) rotate(-30.000000) translate(-15.500000, -29.000000) ">
                            <use fill="#FFFFFF" fill-rule="evenodd" xlink:href="#path-4"></use>
                            <path stroke="#0071BA" stroke-width="1" d="M11.5,41.5 L19.5,41.5 L19.5,20.5058597 C19.5,18.2934839 17.7089109,16.5 15.5,16.5 C13.2942303,16.5 11.5,18.2951732 11.5,20.5058597 L11.5,41.5 Z"></path>
                        </g>
                        <rect id="Rectangle-18" fill="#FFFFFF" transform="translate(21.676924, 39.533494) rotate(-30.000000) translate(-21.676924, -39.533494) " x="18.2769238" y="38.0334936" width="6.80000019" height="3"></rect>
                        <g id="Group-34" transform="translate(69.500000, 33.000000) scale(-1, 1) translate(-69.500000, -33.000000) translate(51.000000, 0.000000)">
                            <g id="Combined-Shape">
                                <use fill="#FFFFFF" fill-rule="evenodd" xlink:href="#path-5"></use>
                                <path stroke="#0071BA" stroke-width="1" d="M0.5,25.1418053 L20.6392405,59.7801032 L20.6392405,65.5 L36.5,65.5 L36.5,57.3035839 C36.5,51.8594514 34.3668682,43.5461413 31.7196237,38.7166904 C31.6978334,38.6608947 31.6512939,38.5496698 31.5798456,38.3910018 C31.4590727,38.1227968 31.3130314,37.8229649 31.1416036,37.4995062 C30.6511981,36.5741846 30.0574704,35.6487122 29.3604969,34.7870543 C28.7387154,34.018355 28.0631883,33.3377078 27.3346193,32.7682086 C26.1785131,31.8645171 22.9728342,30.5276625 18.4216448,28.9580738 C15.3616491,27.9027596 12.1520537,26.89485 9.41435616,26.0819875 L9.22415135,26.0255129 L8.86708861,25.4113862 L8.86708861,4.68211597 C8.86708861,2.37614152 6.99198318,0.5 4.6835443,0.5 C2.37636118,0.5 0.5,2.374334 0.5,4.68211597 L0.5,25.1418053 Z"></path>
                            </g>
                            <g id="Combined-Shape" transform="translate(15.052904, 29.275433) rotate(-30.000000) translate(-15.052904, -29.275433) ">
                                <use fill="#FFFFFF" fill-rule="evenodd" xlink:href="#path-6"></use>
                                <path stroke="#0071BA" stroke-width="1" d="M10.8693595,41.6477738 L19.2364481,41.6477738 L19.2364481,21.0870737 C19.2364481,18.7806725 17.3609323,16.903093 15.0529038,16.903093 C12.7457652,16.903093 10.8693595,18.778218 10.8693595,21.0870737 L10.8693595,41.6477738 Z"></path>
                            </g>
                            <rect id="Rectangle-18" fill="#FFFFFF" transform="translate(21.212744, 40.085824) rotate(-30.000000) translate(-21.212744, -40.085824) " x="17.473338" y="38.6815686" width="7.47881236" height="2.80851064"></rect>
                        </g>
                    </g>
                </g>
            </g>
        </g>
    </g>
</svg>