
<svg width="75px" height="101px" viewBox="0 0 75 101" version="1.1" xmlns="http://www.w3.org/2000/svg" xmlns:xlink="http://www.w3.org/1999/xlink">
    <!-- Generator: Sketch 46.2 (44496) - http://www.bohemiancoding.com/sketch -->
    <desc>Created with Sketch.</desc>
    <defs>
        <path d="M16.3837012,15 C15.9800924,14.4599363 15.3419357,13.7353354 14.3423776,12.7671758 C12.4160324,10.9013414 9.5972442,9.14803084 7.56017497,8 L6.20872801,8 L6.20872801,7.26208123 C5.46527621,6.86915771 5,6.64516129 5,6.64516129 L6.20872801,6.64516129 L6.20872801,2 L35.8225644,2 L35.8225644,6.64516129 L37.2695529,6.64516129 C37.2695529,6.64516129 36.6991606,6.94027672 35.8225644,7.42724691 L35.8225644,8 L34.8090155,8 C32.667708,9.23078841 29.6472663,11.1011167 27.9411348,12.7536547 C26.9667371,13.6974444 26.3476903,14.4363911 25.954864,15 L32,15 L32,18 L10,18 L10,15 L16.3837012,15 Z" id="path-1"></path>
    </defs>
    <g id="Symbols" stroke="none" stroke-width="1" fill="none" fill-rule="evenodd">
        <g id="Icons" transform="translate(-1183.000000, -132.000000)">
            <g id="Признание" transform="translate(1181.000000, 133.000000)">
                <g id="Icon-3" transform="translate(3.000000, 0.000000)">
                    <g id="Group-12">
                        <rect id="Rectangle-37" stroke="#0071BA" fill="#FFFFFF" x="0" y="0" width="73" height="91"></rect>
                        <rect id="Rectangle-37" stroke="#0071BA" fill="#FFFFFF" x="4" y="4" width="65" height="83.3098592"></rect>
                        <g id="Group-11" transform="translate(15.000000, 17.000000)">
                            <g id="Combined-Shape">
                                <use fill="#FFFFFF" fill-rule="evenodd" xlink:href="#path-1"></use>
                                <path stroke="#0071BA" stroke-width="1" d="M6.70872801,7.5 L6.20872801,7.5 L6.70872801,8 L6.70872801,7.5 Z M6.70872801,2.5 L6.70872801,2 L6.20872801,2.5 L6.70872801,2.5 Z M35.3225644,2.5 L35.8225644,2.5 L35.3225644,2 L35.3225644,2.5 Z M35.3225644,7.5 L35.3225644,8 L35.8225644,7.5 L35.3225644,7.5 Z M31.5,15.5 L32,15.5 L31.5,15 L31.5,15.5 Z M31.5,17.5 L31.5,18 L32,17.5 L31.5,17.5 Z M10.5,17.5 L10,17.5 L10.5,18 L10.5,17.5 Z M10.5,15.5 L10.5,15 L10,15.5 L10.5,15.5 Z M6.70872801,7.5 L6.70872801,6.96080111 L6.44236129,6.82002299 C6.11396754,6.64646281 5.81457661,6.49238106 5.55001177,6.35948001 C5.39050218,6.27935225 5.2775173,6.22383949 5.21688779,6.19465082 L5,7.14516129 L6.70872801,7.14516129 L6.70872801,2.5 L35.3225644,2.5 L35.3225644,7.14516129 L37.2695529,7.14516129 L37.0397892,6.20107946 C36.9666208,6.23893611 36.8303694,6.3104907 36.6392729,6.41252867 C36.3216868,6.58210698 35.9657714,6.7757202 35.5797535,6.99016241 L35.3225644,7.1330371 L35.3225644,7.5 L34.6755571,7.5 L34.5598504,7.56650631 C31.5798383,9.27936834 29.0817273,10.9528013 27.5932673,12.3945055 C26.6806041,13.2784998 26.0084561,14.0486778 25.5446677,14.7140998 L24.9969079,15.5 L31.5,15.5 L31.5,17.5 L10.5,17.5 L10.5,15.5 L17.3815706,15.5 L16.7842128,14.7006834 C16.3197959,14.0792533 15.6326443,13.3208227 14.6902452,12.4080265 C13.0046167,10.7753475 10.5736876,9.12438874 7.80565952,7.56441151 L7.69136756,7.5 L6.70872801,7.5 Z"></path>
                            </g>
                            <circle id="Oval-5" stroke="#0071BA" fill="#FFFFFF" cx="4" cy="4" r="4"></circle>
                            <circle id="Oval-5" stroke="#0071BA" fill="#FFFFFF" cx="15" cy="4" r="4"></circle>
                            <circle id="Oval-5" stroke="#0071BA" fill="#FFFFFF" cx="26" cy="4" r="4"></circle>
                            <circle id="Oval-5" stroke="#0071BA" fill="#FFFFFF" cx="37" cy="4" r="4"></circle>
                        </g>
                        <path d="M57,93.5 L57,68 L47,68 L47,93.5 L47,100 L52,94.1666667 L57,100 L57,93.5 Z" id="Combined-Shape" stroke="#0071BA" fill="#FFFFFF"></path>
                        <circle id="Oval-5" stroke="#0071BA" fill="#FFFFFF" cx="52" cy="72" r="7"></circle>
                        <circle id="Oval-5" stroke="#0071BA" fill="#FFFFFF" cx="52" cy="72" r="5"></circle>
                    </g>
                    <path d="M16.5,67.5 L32.5,67.5" id="Line" stroke="#0071BA" stroke-linecap="square"></path>
                    <path d="M16.5,70.5 L24.5,70.5" id="Line" stroke="#0071BA" stroke-linecap="square"></path>
                    <path d="M15.5,46.5 L56.5,46.5" id="Line" stroke="#0071BA" stroke-linecap="square"></path>
                    <path d="M15.5,50.5 L56.5,50.5" id="Line" stroke="#0071BA" stroke-linecap="square"></path>
                    <path d="M15.5,54.5 L56.5,54.5" id="Line" stroke="#0071BA" stroke-linecap="square"></path>
                </g>
            </g>
        </g>
    </g>
</svg>