<?xml version="1.0" encoding="UTF-8"?>
<svg width="73px" height="95px" viewBox="0 0 73 95" version="1.1" xmlns="http://www.w3.org/2000/svg" xmlns:xlink="http://www.w3.org/1999/xlink">
    <!-- Generator: Sketch 46.2 (44496) - http://www.bohemiancoding.com/sketch -->
    <title>гарантия</title>
    <desc>Created with Sketch.</desc>
    <defs></defs>
    <g id="Page-1" stroke="none" stroke-width="1" fill="none" fill-rule="evenodd">
        <g id="Фурнитура" transform="translate(-376.000000, -1289.000000)" stroke="#0071BA">
            <g id="Icons" transform="translate(0.000000, 777.000000)">
                <g id="Опыт" transform="translate(374.000000, 513.000000)">
                    <g id="гарантия" transform="translate(3.000000, 0.000000)">
                        <path d="M-5.68434189e-13,12.967093 C-5.68434189e-13,27.0352069 -5.68434189e-13,41.1033208 -5.68434189e-13,55.1714347 L-6.03961325e-13,55.1714347 C-6.04956615e-13,58.2660039 0.650490153,61.3260155 1.90927903,64.1529943 L3.00886157,66.6224287 L3.00886157,66.6224287 C4.97483109,71.0375885 8.14644028,74.808592 12.1593129,77.5022003 L35.2475605,93 L58.493174,77.5135004 L58.493174,77.5135004 C62.551522,74.8097815 65.78816,71.0420465 67.8490487,66.6224287 L68.9312983,64.3015223 L68.9312983,64.3015223 C70.2938914,61.3794138 71,58.1943457 71,54.9701593 C71,40.9691372 71,26.9681151 71,12.967093 C56.3384649,12.967093 44.4209851,8.64472869 35.2475605,0 C25.6839503,8.64472869 13.9347634,12.967093 -5.68434189e-13,12.967093 Z" id="Path-2" stroke-width="0.959999979"></path>
                        <path d="M6,18.8756264 C6,30.6940828 6,42.5125391 6,54.3309955 L6,54.3309955 C6,56.8885519 6.53317982,59.4180212 7.56551245,61.757975 L8.50032159,63.8768757 L8.50032159,63.8768757 C10.1341178,67.580147 12.7779489,70.7483618 16.128982,73.0186228 L35.2902263,86 L54.5824556,73.0278292 L54.5824556,73.0278292 C57.9711212,70.7492771 60.6689435,67.5838486 62.3816039,63.8768757 L63.3034515,61.8815797 L63.3034515,61.8815797 C64.4211387,59.4623983 65,56.829305 65,54.1644103 C65,42.4014824 65,30.6385544 65,18.8756264 C52.8164709,18.8756264 42.913213,15.2504176 35.2902263,8 C27.3430009,15.2504176 17.5795922,18.8756264 6,18.8756264 Z" id="Path-2"></path>
                        <path d="M16.9805681,46.7638607 L31.4762571,61.2595497 L31.1227037,61.6131031 L30.7691503,61.2595497 L31.1236942,60.9050058 L31.5334502,61.3147617 L31.1798968,61.6683151 L30.8263434,61.3147617 L54.6152713,37.5258338 L50.3726306,33.2831932 L31.1789063,52.4769175 L21.2232088,42.52122 L16.9805681,46.7638607 Z" id="Combined-Shape"></path>
                    </g>
                </g>
            </g>
        </g>
    </g>
</svg>