<?xml version="1.0" encoding="UTF-8"?>
<svg width="122px" height="128px" viewBox="0 0 122 128" version="1.1" xmlns="http://www.w3.org/2000/svg" xmlns:xlink="http://www.w3.org/1999/xlink">
    <!-- Generator: Sketch 46.2 (44496) - http://www.bohemiancoding.com/sketch -->
    <title>Гарантия</title>
    <desc>Created with Sketch.</desc>
    <defs></defs>
    <g id="Page-1" stroke="none" stroke-width="1" fill="none" fill-rule="evenodd">
        <g id="Фурнитура" transform="translate(-1423.000000, -4612.000000)">
            <g id="Package" transform="translate(0.000000, 2952.000000)">
                <g id="Усиленный" transform="translate(0.000000, 1530.000000)">
                    <g id="Гарантия" transform="translate(1413.000000, 123.000000)">
                        <g id="Group-36" font-weight="500" font-family="MuseoSansCyrl-700, Museo Sans Cyrl" fill="#0071BA">
                            <text id="5" font-size="48">
                                <tspan x="57" y="63">5</tspan>
                            </text>
                            <text id="ЛЕТ-ГАРАНТИИ" font-size="14" line-spacing="18" letter-spacing="2">
                                <tspan x="55.312" y="80">ЛЕТ</tspan>
                                <tspan x="28.072" y="98">ГАРАНТИ</tspan>
                                <tspan x="104.386" y="98">И</tspan>
                            </text>
                        </g>
                        <g id="Group-36">
                            <g id="Group-33" stroke="#0071BA">
                                <polygon id="Star" transform="translate(35.980587, 114.723047) rotate(5.000000) translate(-35.980587, -114.723047) " points="35.9805873 117.568546 32.0106503 120.187196 33.2743563 115.602354 29.5570942 112.635927 34.3080446 112.420989 35.9805873 107.968986 37.6531301 112.420989 42.4040804 112.635927 38.6868183 115.602354 39.9505244 120.187196"></polygon>
                                <polygon id="Star" transform="translate(105.166635, 114.723047) scale(-1, 1) rotate(5.000000) translate(-105.166635, -114.723047) " points="105.166635 117.568546 101.196698 120.187196 102.460404 115.602354 98.7431418 112.635927 103.494092 112.420989 105.166635 107.968986 106.839178 112.420989 111.590128 112.635927 107.872866 115.602354 109.136572 120.187196"></polygon>
                                <polygon id="Star" transform="translate(70.941177, 127.773142) rotate(-180.000000) translate(-70.941177, -127.773142) " points="70.941177 130.618642 66.97124 133.237292 68.234946 128.65245 64.517684 125.686023 69.2686343 125.471084 70.941177 121.019082 72.6137198 125.471084 77.3646701 125.686023 73.6474081 128.65245 74.9111141 133.237292"></polygon>
                                <polygon id="Star" transform="translate(52.386824, 124.312150) rotate(-16.000000) translate(-52.386824, -124.312150) " points="52.3868243 127.157649 48.4168872 129.776299 49.6805933 125.191457 45.9633312 122.22503 50.7142815 122.010092 52.3868243 117.558089 54.059367 122.010092 58.8103174 122.22503 55.0930553 125.191457 56.3567613 129.776299"></polygon>
                                <polygon id="Star" transform="translate(89.495530, 124.326249) scale(-1, 1) rotate(-16.000000) translate(-89.495530, -124.326249) " points="89.4955298 127.171748 85.5255928 129.790398 86.7892988 125.205556 83.0720367 122.239129 87.8229871 122.024191 89.4955298 117.572188 91.1680726 122.024191 95.9190229 122.239129 92.2017608 125.205556 93.4654669 129.790398"></polygon>
                            </g>
                            <g id="Group-33" transform="translate(71.000000, 71.000000) rotate(-180.000000) translate(-71.000000, -71.000000) translate(0.000000, -0.000000)" stroke="#0071BA">
                                <path d="M119.583682,106.429521 C126.841326,96.4938354 131.125,84.2479417 131.125,71.0015425 C131.125,57.7237245 126.820982,45.4511639 119.531989,35.502905 M21.5611671,36.7748225 C14.8233835,46.4888791 10.875,58.2841136 10.875,71.0015425 C10.875,83.7057155 14.8151567,95.4896157 21.5401071,105.19788" id="Oval-9" stroke-linecap="round"></path>
                                <polygon id="Star" transform="translate(35.980587, 114.723047) rotate(5.000000) translate(-35.980587, -114.723047) " points="35.9805873 117.568546 32.0106503 120.187196 33.2743563 115.602354 29.5570942 112.635927 34.3080446 112.420989 35.9805873 107.968986 37.6531301 112.420989 42.4040804 112.635927 38.6868183 115.602354 39.9505244 120.187196"></polygon>
                                <polygon id="Star" transform="translate(105.166635, 114.723047) scale(-1, 1) rotate(5.000000) translate(-105.166635, -114.723047) " points="105.166635 117.568546 101.196698 120.187196 102.460404 115.602354 98.7431418 112.635927 103.494092 112.420989 105.166635 107.968986 106.839178 112.420989 111.590128 112.635927 107.872866 115.602354 109.136572 120.187196"></polygon>
                                <polygon id="Star" transform="translate(70.941177, 127.773142) rotate(-180.000000) translate(-70.941177, -127.773142) " points="70.941177 130.618642 66.97124 133.237292 68.234946 128.65245 64.517684 125.686023 69.2686343 125.471084 70.941177 121.019082 72.6137198 125.471084 77.3646701 125.686023 73.6474081 128.65245 74.9111141 133.237292"></polygon>
                                <polygon id="Star" transform="translate(52.386824, 124.312150) rotate(-16.000000) translate(-52.386824, -124.312150) " points="52.3868243 127.157649 48.4168872 129.776299 49.6805933 125.191457 45.9633312 122.22503 50.7142815 122.010092 52.3868243 117.558089 54.059367 122.010092 58.8103174 122.22503 55.0930553 125.191457 56.3567613 129.776299"></polygon>
                                <polygon id="Star" transform="translate(89.495530, 124.326249) scale(-1, 1) rotate(-16.000000) translate(-89.495530, -124.326249) " points="89.4955298 127.171748 85.5255928 129.790398 86.7892988 125.205556 83.0720367 122.239129 87.8229871 122.024191 89.4955298 117.572188 91.1680726 122.024191 95.9190229 122.239129 92.2017608 125.205556 93.4654669 129.790398"></polygon>
                            </g>
                            <text id="5" font-family="MuseoSansCyrl-700, Museo Sans Cyrl" font-size="48" font-weight="500" fill="#0071BA">
                                <tspan x="57" y="63">5</tspan>
                            </text>
                            <text id="ЛЕТ-ГАРАНТИИ" font-family="MuseoSansCyrl-700, Museo Sans Cyrl" font-size="14" font-weight="500" line-spacing="18" letter-spacing="2" fill="#0071BA">
                                <tspan x="55.312" y="80">ЛЕТ</tspan>
                                <tspan x="28.072" y="98">ГАРАНТИ</tspan>
                                <tspan x="104.386" y="98">И</tspan>
                            </text>
                        </g>
                    </g>
                </g>
            </g>
        </g>
    </g>
</svg>