
<svg width="111px" height="100px" viewBox="0 0 111 100" version="1.1" xmlns="http://www.w3.org/2000/svg" xmlns:xlink="http://www.w3.org/1999/xlink">
    <!-- Generator: Sketch 46.2 (44496) - http://www.bohemiancoding.com/sketch -->
    <desc>Created with Sketch.</desc>
    <defs>
        <rect id="path-1" x="0" y="0" width="31" height="31"></rect>
        <path d="M9.23658146,9.16666667 L4.05220767,4.88888889 L3.78580977,4.88888889 L3.78580977,4.66907622 L3.04878049,4.0609319 L3.78580977,4.0609319 L3.78580977,1.22222222 L21.8430271,1.22222222 L21.8430271,4.0609319 L22.7253371,4.0609319 L21.8430271,4.78895162 L21.8430271,4.88888889 L21.7219099,4.88888889 L16.5375361,9.16666667 L19.5121951,9.16666667 L19.5121951,12.1666667 L6.09756098,12.1666667 L6.09756098,9.16666667 L9.23658146,9.16666667 Z" id="path-3"></path>
        <rect id="path-4" x="30" y="15" width="1" height="12"></rect>
        <rect id="path-5" x="0" y="0" width="31" height="31"></rect>
        <path d="M9.23658146,9.16666667 L4.05220767,4.88888889 L3.78580977,4.88888889 L3.78580977,4.66907622 L3.04878049,4.0609319 L3.78580977,4.0609319 L3.78580977,1.22222222 L21.8430271,1.22222222 L21.8430271,4.0609319 L22.7253371,4.0609319 L21.8430271,4.78895162 L21.8430271,4.88888889 L21.7219099,4.88888889 L16.5375361,9.16666667 L19.5121951,9.16666667 L19.5121951,12.1666667 L6.09756098,12.1666667 L6.09756098,9.16666667 L9.23658146,9.16666667 Z" id="path-7"></path>
        <rect id="path-8" x="30" y="15" width="1" height="12"></rect>
        <rect id="path-9" x="0" y="0" width="31" height="31"></rect>
        <path d="M9.23658146,9.16666667 L4.05220767,4.88888889 L3.78580977,4.88888889 L3.78580977,4.66907622 L3.04878049,4.0609319 L3.78580977,4.0609319 L3.78580977,1.22222222 L21.8430271,1.22222222 L21.8430271,4.0609319 L22.7253371,4.0609319 L21.8430271,4.78895162 L21.8430271,4.88888889 L21.7219099,4.88888889 L16.5375361,9.16666667 L19.5121951,9.16666667 L19.5121951,12.1666667 L6.09756098,12.1666667 L6.09756098,9.16666667 L9.23658146,9.16666667 Z" id="path-11"></path>
        <rect id="path-12" x="30" y="15" width="1" height="12"></rect>
        <rect id="path-13" x="0" y="0" width="31" height="31"></rect>
        <path d="M9.23658146,9.16666667 L4.05220767,4.88888889 L3.78580977,4.88888889 L3.78580977,4.66907622 L3.04878049,4.0609319 L3.78580977,4.0609319 L3.78580977,1.22222222 L21.8430271,1.22222222 L21.8430271,4.0609319 L22.7253371,4.0609319 L21.8430271,4.78895162 L21.8430271,4.88888889 L21.7219099,4.88888889 L16.5375361,9.16666667 L19.5121951,9.16666667 L19.5121951,12.1666667 L6.09756098,12.1666667 L6.09756098,9.16666667 L9.23658146,9.16666667 Z" id="path-15"></path>
        <rect id="path-16" x="30" y="15" width="1" height="12"></rect>
        <rect id="path-17" x="0" y="0" width="31" height="31"></rect>
        <path d="M9.23658146,9.16666667 L4.05220767,4.88888889 L3.78580977,4.88888889 L3.78580977,4.66907622 L3.04878049,4.0609319 L3.78580977,4.0609319 L3.78580977,1.22222222 L21.8430271,1.22222222 L21.8430271,4.0609319 L22.7253371,4.0609319 L21.8430271,4.78895162 L21.8430271,4.88888889 L21.7219099,4.88888889 L16.5375361,9.16666667 L19.5121951,9.16666667 L19.5121951,12.1666667 L6.09756098,12.1666667 L6.09756098,9.16666667 L9.23658146,9.16666667 Z" id="path-19"></path>
        <rect id="path-20" x="30" y="15" width="1" height="12"></rect>
        <rect id="path-21" x="0" y="0" width="31" height="31"></rect>
        <path d="M9.23658146,9.16666667 L4.05220767,4.88888889 L3.78580977,4.88888889 L3.78580977,4.66907622 L3.04878049,4.0609319 L3.78580977,4.0609319 L3.78580977,1.22222222 L21.8430271,1.22222222 L21.8430271,4.0609319 L22.7253371,4.0609319 L21.8430271,4.78895162 L21.8430271,4.88888889 L21.7219099,4.88888889 L16.5375361,9.16666667 L19.5121951,9.16666667 L19.5121951,12.1666667 L6.09756098,12.1666667 L6.09756098,9.16666667 L9.23658146,9.16666667 Z" id="path-23"></path>
        <rect id="path-24" x="30" y="15" width="1" height="12"></rect>
    </defs>
    <g id="Symbols" stroke="none" stroke-width="1" fill="none" fill-rule="evenodd">
        <g id="Icons" transform="translate(-773.000000, -506.000000)">
            <g id="Цены" transform="translate(773.000000, 506.000000)">
                <g id="Icon-4">
                    <g id="Group-17" transform="translate(40.000000, 0.000000)">
                        <g id="Group-11">
                            <mask id="mask-2" fill="white">
                                <use xlink:href="#path-1"></use>
                            </mask>
                            <g id="Mask">
                                <use fill="#FFFFFF" fill-rule="evenodd" xlink:href="#path-1"></use>
                                <rect stroke="#0071BA" stroke-width="1" x="0.5" y="0.5" width="30" height="30"></rect>
                            </g>
                            <g mask="url(#mask-2)">
                                <g transform="translate(15.000000, 15.000000)">
                                    <g id="Combined-Shape" stroke="none" fill="none">
                                        <use fill="#FFFFFF" fill-rule="evenodd" xlink:href="#path-3"></use>
                                        <path stroke="#0071BA" stroke-width="1" d="M3.78580977,4.5609319 L3.78580977,4.88888889 L4.28580977,4.88888889 L4.28580977,4.43340508 L3.36700159,3.67526971 L3.04878049,4.5609319 L3.78580977,4.5609319 Z M4.28580977,1.72222222 L4.28580977,1.22222222 L3.78580977,1.72222222 L4.28580977,1.72222222 Z M21.3430271,1.72222222 L21.8430271,1.72222222 L21.3430271,1.22222222 L21.3430271,1.72222222 Z M21.8430271,4.5609319 L22.7253371,4.5609319 L22.407116,3.67526971 L21.3430271,4.55328048 L21.3430271,4.88888889 L21.8430271,4.88888889 L21.8430271,4.5609319 Z M19.0121951,9.66666667 L19.5121951,9.66666667 L19.0121951,9.16666667 L19.0121951,9.66666667 Z M19.0121951,11.6666667 L19.0121951,12.1666667 L19.5121951,11.6666667 L19.0121951,11.6666667 Z M6.59756098,11.6666667 L6.09756098,11.6666667 L6.59756098,12.1666667 L6.59756098,11.6666667 Z M6.59756098,9.66666667 L6.59756098,9.16666667 L6.09756098,9.66666667 L6.59756098,9.66666667 Z M4.28580977,4.43340508 L4.28580977,1.72222222 L21.3430271,1.72222222 L21.3430271,4.55328048 L15.1459531,9.66666667 L19.0121951,9.66666667 L19.0121951,11.6666667 L6.59756098,11.6666667 L6.59756098,9.66666667 L10.6281645,9.66666667 L4.28580977,4.43340508 Z"></path>
                                    </g>
                                    <ellipse id="Oval-5" stroke="#0071BA" stroke-width="1" fill="#FFFFFF" fill-rule="evenodd" cx="2.43902439" cy="2.44444444" rx="2.43902439" ry="2.44444444"></ellipse>
                                    <ellipse id="Oval-5" stroke="#0071BA" stroke-width="1" fill="#FFFFFF" fill-rule="evenodd" cx="9.14634146" cy="2.44444444" rx="2.43902439" ry="2.44444444"></ellipse>
                                    <ellipse id="Oval-5" stroke="#0071BA" stroke-width="1" fill="#FFFFFF" fill-rule="evenodd" cx="15.8536585" cy="2.44444444" rx="2.43902439" ry="2.44444444"></ellipse>
                                    <ellipse id="Oval-5" stroke="#0071BA" stroke-width="1" fill="#FFFFFF" fill-rule="evenodd" cx="22.5609756" cy="2.44444444" rx="2.43902439" ry="2.44444444"></ellipse>
                                </g>
                            </g>
                            <g id="Rectangle-12" mask="url(#mask-2)">
                                <use fill="#D8D8D8" fill-rule="evenodd" xlink:href="#path-4"></use>
                                <rect stroke="#0071BA" stroke-width="1" x="30.5" y="15.5" width="1" height="11"></rect>
                            </g>
                        </g>
                        <path d="M4.5,4.5 L12.5,4.5" id="Line" stroke="#0071BA" stroke-linecap="square"></path>
                        <path d="M4.5,6.5 L12.5,6.5" id="Line" stroke="#0071BA" stroke-linecap="square"></path>
                    </g>
                    <g id="Group-17" transform="translate(23.000000, 33.000000)">
                        <g id="Group-11">
                            <mask id="mask-6" fill="white">
                                <use xlink:href="#path-5"></use>
                            </mask>
                            <g id="Mask">
                                <use fill="#FFFFFF" fill-rule="evenodd" xlink:href="#path-5"></use>
                                <rect stroke="#0071BA" stroke-width="1" x="0.5" y="0.5" width="30" height="30"></rect>
                            </g>
                            <g mask="url(#mask-6)">
                                <g transform="translate(15.000000, 15.000000)">
                                    <g id="Combined-Shape" stroke="none" fill="none">
                                        <use fill="#FFFFFF" fill-rule="evenodd" xlink:href="#path-7"></use>
                                        <path stroke="#0071BA" stroke-width="1" d="M3.78580977,4.5609319 L3.78580977,4.88888889 L4.28580977,4.88888889 L4.28580977,4.43340508 L3.36700159,3.67526971 L3.04878049,4.5609319 L3.78580977,4.5609319 Z M4.28580977,1.72222222 L4.28580977,1.22222222 L3.78580977,1.72222222 L4.28580977,1.72222222 Z M21.3430271,1.72222222 L21.8430271,1.72222222 L21.3430271,1.22222222 L21.3430271,1.72222222 Z M21.8430271,4.5609319 L22.7253371,4.5609319 L22.407116,3.67526971 L21.3430271,4.55328048 L21.3430271,4.88888889 L21.8430271,4.88888889 L21.8430271,4.5609319 Z M19.0121951,9.66666667 L19.5121951,9.66666667 L19.0121951,9.16666667 L19.0121951,9.66666667 Z M19.0121951,11.6666667 L19.0121951,12.1666667 L19.5121951,11.6666667 L19.0121951,11.6666667 Z M6.59756098,11.6666667 L6.09756098,11.6666667 L6.59756098,12.1666667 L6.59756098,11.6666667 Z M6.59756098,9.66666667 L6.59756098,9.16666667 L6.09756098,9.66666667 L6.59756098,9.66666667 Z M4.28580977,4.43340508 L4.28580977,1.72222222 L21.3430271,1.72222222 L21.3430271,4.55328048 L15.1459531,9.66666667 L19.0121951,9.66666667 L19.0121951,11.6666667 L6.59756098,11.6666667 L6.59756098,9.66666667 L10.6281645,9.66666667 L4.28580977,4.43340508 Z"></path>
                                    </g>
                                    <ellipse id="Oval-5" stroke="#0071BA" stroke-width="1" fill="#FFFFFF" fill-rule="evenodd" cx="2.43902439" cy="2.44444444" rx="2.43902439" ry="2.44444444"></ellipse>
                                    <ellipse id="Oval-5" stroke="#0071BA" stroke-width="1" fill="#FFFFFF" fill-rule="evenodd" cx="9.14634146" cy="2.44444444" rx="2.43902439" ry="2.44444444"></ellipse>
                                    <ellipse id="Oval-5" stroke="#0071BA" stroke-width="1" fill="#FFFFFF" fill-rule="evenodd" cx="15.8536585" cy="2.44444444" rx="2.43902439" ry="2.44444444"></ellipse>
                                    <ellipse id="Oval-5" stroke="#0071BA" stroke-width="1" fill="#FFFFFF" fill-rule="evenodd" cx="22.5609756" cy="2.44444444" rx="2.43902439" ry="2.44444444"></ellipse>
                                </g>
                            </g>
                            <g id="Rectangle-12" mask="url(#mask-6)">
                                <use fill="#D8D8D8" fill-rule="evenodd" xlink:href="#path-8"></use>
                                <rect stroke="#0071BA" stroke-width="1" x="30.5" y="15.5" width="1" height="11"></rect>
                            </g>
                        </g>
                        <path d="M4.5,4.5 L12.5,4.5" id="Line" stroke="#0071BA" stroke-linecap="square"></path>
                        <path d="M4.5,6.5 L12.5,6.5" id="Line" stroke="#0071BA" stroke-linecap="square"></path>
                    </g>
                    <g id="Group-17" transform="translate(40.000000, 66.000000)">
                        <g id="Group-11">
                            <mask id="mask-10" fill="white">
                                <use xlink:href="#path-9"></use>
                            </mask>
                            <g id="Mask">
                                <use fill="#FFFFFF" fill-rule="evenodd" xlink:href="#path-9"></use>
                                <rect stroke="#0071BA" stroke-width="1" x="0.5" y="0.5" width="30" height="30"></rect>
                            </g>
                            <g mask="url(#mask-10)">
                                <g transform="translate(15.000000, 15.000000)">
                                    <g id="Combined-Shape" stroke="none" fill="none">
                                        <use fill="#FFFFFF" fill-rule="evenodd" xlink:href="#path-11"></use>
                                        <path stroke="#0071BA" stroke-width="1" d="M3.78580977,4.5609319 L3.78580977,4.88888889 L4.28580977,4.88888889 L4.28580977,4.43340508 L3.36700159,3.67526971 L3.04878049,4.5609319 L3.78580977,4.5609319 Z M4.28580977,1.72222222 L4.28580977,1.22222222 L3.78580977,1.72222222 L4.28580977,1.72222222 Z M21.3430271,1.72222222 L21.8430271,1.72222222 L21.3430271,1.22222222 L21.3430271,1.72222222 Z M21.8430271,4.5609319 L22.7253371,4.5609319 L22.407116,3.67526971 L21.3430271,4.55328048 L21.3430271,4.88888889 L21.8430271,4.88888889 L21.8430271,4.5609319 Z M19.0121951,9.66666667 L19.5121951,9.66666667 L19.0121951,9.16666667 L19.0121951,9.66666667 Z M19.0121951,11.6666667 L19.0121951,12.1666667 L19.5121951,11.6666667 L19.0121951,11.6666667 Z M6.59756098,11.6666667 L6.09756098,11.6666667 L6.59756098,12.1666667 L6.59756098,11.6666667 Z M6.59756098,9.66666667 L6.59756098,9.16666667 L6.09756098,9.66666667 L6.59756098,9.66666667 Z M4.28580977,4.43340508 L4.28580977,1.72222222 L21.3430271,1.72222222 L21.3430271,4.55328048 L15.1459531,9.66666667 L19.0121951,9.66666667 L19.0121951,11.6666667 L6.59756098,11.6666667 L6.59756098,9.66666667 L10.6281645,9.66666667 L4.28580977,4.43340508 Z"></path>
                                    </g>
                                    <ellipse id="Oval-5" stroke="#0071BA" stroke-width="1" fill="#FFFFFF" fill-rule="evenodd" cx="2.43902439" cy="2.44444444" rx="2.43902439" ry="2.44444444"></ellipse>
                                    <ellipse id="Oval-5" stroke="#0071BA" stroke-width="1" fill="#FFFFFF" fill-rule="evenodd" cx="9.14634146" cy="2.44444444" rx="2.43902439" ry="2.44444444"></ellipse>
                                    <ellipse id="Oval-5" stroke="#0071BA" stroke-width="1" fill="#FFFFFF" fill-rule="evenodd" cx="15.8536585" cy="2.44444444" rx="2.43902439" ry="2.44444444"></ellipse>
                                    <ellipse id="Oval-5" stroke="#0071BA" stroke-width="1" fill="#FFFFFF" fill-rule="evenodd" cx="22.5609756" cy="2.44444444" rx="2.43902439" ry="2.44444444"></ellipse>
                                </g>
                            </g>
                            <g id="Rectangle-12" mask="url(#mask-10)">
                                <use fill="#D8D8D8" fill-rule="evenodd" xlink:href="#path-12"></use>
                                <rect stroke="#0071BA" stroke-width="1" x="30.5" y="15.5" width="1" height="11"></rect>
                            </g>
                        </g>
                        <path d="M4.5,4.5 L12.5,4.5" id="Line" stroke="#0071BA" stroke-linecap="square"></path>
                        <path d="M4.5,6.5 L12.5,6.5" id="Line" stroke="#0071BA" stroke-linecap="square"></path>
                    </g>
                    <g id="Group-17" transform="translate(74.000000, 66.000000)">
                        <g id="Group-11">
                            <mask id="mask-14" fill="white">
                                <use xlink:href="#path-13"></use>
                            </mask>
                            <g id="Mask">
                                <use fill="#FFFFFF" fill-rule="evenodd" xlink:href="#path-13"></use>
                                <rect stroke="#0071BA" stroke-width="1" x="0.5" y="0.5" width="30" height="30"></rect>
                            </g>
                            <g mask="url(#mask-14)">
                                <g transform="translate(15.000000, 15.000000)">
                                    <g id="Combined-Shape" stroke="none" fill="none">
                                        <use fill="#FFFFFF" fill-rule="evenodd" xlink:href="#path-15"></use>
                                        <path stroke="#0071BA" stroke-width="1" d="M3.78580977,4.5609319 L3.78580977,4.88888889 L4.28580977,4.88888889 L4.28580977,4.43340508 L3.36700159,3.67526971 L3.04878049,4.5609319 L3.78580977,4.5609319 Z M4.28580977,1.72222222 L4.28580977,1.22222222 L3.78580977,1.72222222 L4.28580977,1.72222222 Z M21.3430271,1.72222222 L21.8430271,1.72222222 L21.3430271,1.22222222 L21.3430271,1.72222222 Z M21.8430271,4.5609319 L22.7253371,4.5609319 L22.407116,3.67526971 L21.3430271,4.55328048 L21.3430271,4.88888889 L21.8430271,4.88888889 L21.8430271,4.5609319 Z M19.0121951,9.66666667 L19.5121951,9.66666667 L19.0121951,9.16666667 L19.0121951,9.66666667 Z M19.0121951,11.6666667 L19.0121951,12.1666667 L19.5121951,11.6666667 L19.0121951,11.6666667 Z M6.59756098,11.6666667 L6.09756098,11.6666667 L6.59756098,12.1666667 L6.59756098,11.6666667 Z M6.59756098,9.66666667 L6.59756098,9.16666667 L6.09756098,9.66666667 L6.59756098,9.66666667 Z M4.28580977,4.43340508 L4.28580977,1.72222222 L21.3430271,1.72222222 L21.3430271,4.55328048 L15.1459531,9.66666667 L19.0121951,9.66666667 L19.0121951,11.6666667 L6.59756098,11.6666667 L6.59756098,9.66666667 L10.6281645,9.66666667 L4.28580977,4.43340508 Z"></path>
                                    </g>
                                    <ellipse id="Oval-5" stroke="#0071BA" stroke-width="1" fill="#FFFFFF" fill-rule="evenodd" cx="2.43902439" cy="2.44444444" rx="2.43902439" ry="2.44444444"></ellipse>
                                    <ellipse id="Oval-5" stroke="#0071BA" stroke-width="1" fill="#FFFFFF" fill-rule="evenodd" cx="9.14634146" cy="2.44444444" rx="2.43902439" ry="2.44444444"></ellipse>
                                    <ellipse id="Oval-5" stroke="#0071BA" stroke-width="1" fill="#FFFFFF" fill-rule="evenodd" cx="15.8536585" cy="2.44444444" rx="2.43902439" ry="2.44444444"></ellipse>
                                    <ellipse id="Oval-5" stroke="#0071BA" stroke-width="1" fill="#FFFFFF" fill-rule="evenodd" cx="22.5609756" cy="2.44444444" rx="2.43902439" ry="2.44444444"></ellipse>
                                </g>
                            </g>
                            <g id="Rectangle-12" mask="url(#mask-14)">
                                <use fill="#D8D8D8" fill-rule="evenodd" xlink:href="#path-16"></use>
                                <rect stroke="#0071BA" stroke-width="1" x="30.5" y="15.5" width="1" height="11"></rect>
                            </g>
                        </g>
                        <path d="M4.5,4.5 L12.5,4.5" id="Line" stroke="#0071BA" stroke-linecap="square"></path>
                        <path d="M4.5,6.5 L12.5,6.5" id="Line" stroke="#0071BA" stroke-linecap="square"></path>
                    </g>
                    <g id="Group-17" transform="translate(57.000000, 33.000000)">
                        <g id="Group-11">
                            <mask id="mask-18" fill="white">
                                <use xlink:href="#path-17"></use>
                            </mask>
                            <g id="Mask">
                                <use fill="#FFFFFF" fill-rule="evenodd" xlink:href="#path-17"></use>
                                <rect stroke="#0071BA" stroke-width="1" x="0.5" y="0.5" width="30" height="30"></rect>
                            </g>
                            <g mask="url(#mask-18)">
                                <g transform="translate(15.000000, 15.000000)">
                                    <g id="Combined-Shape" stroke="none" fill="none">
                                        <use fill="#FFFFFF" fill-rule="evenodd" xlink:href="#path-19"></use>
                                        <path stroke="#0071BA" stroke-width="1" d="M3.78580977,4.5609319 L3.78580977,4.88888889 L4.28580977,4.88888889 L4.28580977,4.43340508 L3.36700159,3.67526971 L3.04878049,4.5609319 L3.78580977,4.5609319 Z M4.28580977,1.72222222 L4.28580977,1.22222222 L3.78580977,1.72222222 L4.28580977,1.72222222 Z M21.3430271,1.72222222 L21.8430271,1.72222222 L21.3430271,1.22222222 L21.3430271,1.72222222 Z M21.8430271,4.5609319 L22.7253371,4.5609319 L22.407116,3.67526971 L21.3430271,4.55328048 L21.3430271,4.88888889 L21.8430271,4.88888889 L21.8430271,4.5609319 Z M19.0121951,9.66666667 L19.5121951,9.66666667 L19.0121951,9.16666667 L19.0121951,9.66666667 Z M19.0121951,11.6666667 L19.0121951,12.1666667 L19.5121951,11.6666667 L19.0121951,11.6666667 Z M6.59756098,11.6666667 L6.09756098,11.6666667 L6.59756098,12.1666667 L6.59756098,11.6666667 Z M6.59756098,9.66666667 L6.59756098,9.16666667 L6.09756098,9.66666667 L6.59756098,9.66666667 Z M4.28580977,4.43340508 L4.28580977,1.72222222 L21.3430271,1.72222222 L21.3430271,4.55328048 L15.1459531,9.66666667 L19.0121951,9.66666667 L19.0121951,11.6666667 L6.59756098,11.6666667 L6.59756098,9.66666667 L10.6281645,9.66666667 L4.28580977,4.43340508 Z"></path>
                                    </g>
                                    <ellipse id="Oval-5" stroke="#0071BA" stroke-width="1" fill="#FFFFFF" fill-rule="evenodd" cx="2.43902439" cy="2.44444444" rx="2.43902439" ry="2.44444444"></ellipse>
                                    <ellipse id="Oval-5" stroke="#0071BA" stroke-width="1" fill="#FFFFFF" fill-rule="evenodd" cx="9.14634146" cy="2.44444444" rx="2.43902439" ry="2.44444444"></ellipse>
                                    <ellipse id="Oval-5" stroke="#0071BA" stroke-width="1" fill="#FFFFFF" fill-rule="evenodd" cx="15.8536585" cy="2.44444444" rx="2.43902439" ry="2.44444444"></ellipse>
                                    <ellipse id="Oval-5" stroke="#0071BA" stroke-width="1" fill="#FFFFFF" fill-rule="evenodd" cx="22.5609756" cy="2.44444444" rx="2.43902439" ry="2.44444444"></ellipse>
                                </g>
                            </g>
                            <g id="Rectangle-12" mask="url(#mask-18)">
                                <use fill="#D8D8D8" fill-rule="evenodd" xlink:href="#path-20"></use>
                                <rect stroke="#0071BA" stroke-width="1" x="30.5" y="15.5" width="1" height="11"></rect>
                            </g>
                        </g>
                        <path d="M4.5,4.5 L12.5,4.5" id="Line" stroke="#0071BA" stroke-linecap="square"></path>
                        <path d="M4.5,6.5 L12.5,6.5" id="Line" stroke="#0071BA" stroke-linecap="square"></path>
                    </g>
                    <g id="Group-17" transform="translate(6.000000, 66.000000)">
                        <g id="Group-11">
                            <mask id="mask-22" fill="white">
                                <use xlink:href="#path-21"></use>
                            </mask>
                            <g id="Mask">
                                <use fill="#FFFFFF" fill-rule="evenodd" xlink:href="#path-21"></use>
                                <rect stroke="#0071BA" stroke-width="1" x="0.5" y="0.5" width="30" height="30"></rect>
                            </g>
                            <g mask="url(#mask-22)">
                                <g transform="translate(15.000000, 15.000000)">
                                    <g id="Combined-Shape" stroke="none" fill="none">
                                        <use fill="#FFFFFF" fill-rule="evenodd" xlink:href="#path-23"></use>
                                        <path stroke="#0071BA" stroke-width="1" d="M3.78580977,4.5609319 L3.78580977,4.88888889 L4.28580977,4.88888889 L4.28580977,4.43340508 L3.36700159,3.67526971 L3.04878049,4.5609319 L3.78580977,4.5609319 Z M4.28580977,1.72222222 L4.28580977,1.22222222 L3.78580977,1.72222222 L4.28580977,1.72222222 Z M21.3430271,1.72222222 L21.8430271,1.72222222 L21.3430271,1.22222222 L21.3430271,1.72222222 Z M21.8430271,4.5609319 L22.7253371,4.5609319 L22.407116,3.67526971 L21.3430271,4.55328048 L21.3430271,4.88888889 L21.8430271,4.88888889 L21.8430271,4.5609319 Z M19.0121951,9.66666667 L19.5121951,9.66666667 L19.0121951,9.16666667 L19.0121951,9.66666667 Z M19.0121951,11.6666667 L19.0121951,12.1666667 L19.5121951,11.6666667 L19.0121951,11.6666667 Z M6.59756098,11.6666667 L6.09756098,11.6666667 L6.59756098,12.1666667 L6.59756098,11.6666667 Z M6.59756098,9.66666667 L6.59756098,9.16666667 L6.09756098,9.66666667 L6.59756098,9.66666667 Z M4.28580977,4.43340508 L4.28580977,1.72222222 L21.3430271,1.72222222 L21.3430271,4.55328048 L15.1459531,9.66666667 L19.0121951,9.66666667 L19.0121951,11.6666667 L6.59756098,11.6666667 L6.59756098,9.66666667 L10.6281645,9.66666667 L4.28580977,4.43340508 Z"></path>
                                    </g>
                                    <ellipse id="Oval-5" stroke="#0071BA" stroke-width="1" fill="#FFFFFF" fill-rule="evenodd" cx="2.43902439" cy="2.44444444" rx="2.43902439" ry="2.44444444"></ellipse>
                                    <ellipse id="Oval-5" stroke="#0071BA" stroke-width="1" fill="#FFFFFF" fill-rule="evenodd" cx="9.14634146" cy="2.44444444" rx="2.43902439" ry="2.44444444"></ellipse>
                                    <ellipse id="Oval-5" stroke="#0071BA" stroke-width="1" fill="#FFFFFF" fill-rule="evenodd" cx="15.8536585" cy="2.44444444" rx="2.43902439" ry="2.44444444"></ellipse>
                                    <ellipse id="Oval-5" stroke="#0071BA" stroke-width="1" fill="#FFFFFF" fill-rule="evenodd" cx="22.5609756" cy="2.44444444" rx="2.43902439" ry="2.44444444"></ellipse>
                                </g>
                            </g>
                            <g id="Rectangle-12" mask="url(#mask-22)">
                                <use fill="#D8D8D8" fill-rule="evenodd" xlink:href="#path-24"></use>
                                <rect stroke="#0071BA" stroke-width="1" x="30.5" y="15.5" width="1" height="11"></rect>
                            </g>
                        </g>
                        <path d="M4.5,4.5 L12.5,4.5" id="Line" stroke="#0071BA" stroke-linecap="square"></path>
                        <path d="M4.5,6.5 L12.5,6.5" id="Line" stroke="#0071BA" stroke-linecap="square"></path>
                    </g>
                    <path d="M0.5,99.5 L110.5,99.5" id="Line" stroke="#0071BA" stroke-linecap="square"></path>
                </g>
            </g>
        </g>
    </g>
</svg>